<svg xmlns="http://www.w3.org/2000/svg" viewBox="0 0 40 40" fill="none">
  <path stroke="#0026FF" stroke-linecap="round" stroke-linejoin="round" stroke-width="2.5" d="M3.75 31.25c9.112 0 17.94 1.219 26.328 3.502 1.212.33 2.422-.571 2.422-1.827V31.25M6.25 7.5v1.25C6.25 9.44 5.69 10 5 10H3.75m0 0v-.625c0-1.036.84-1.875 1.875-1.875H33.75m-30 2.5v15m30-17.5v1.25c0 .69.56 1.25 1.25 1.25h1.25m-2.5-2.5h.625c1.035 0 1.875.84 1.875 1.875v16.25c0 1.035-.84 1.875-1.875 1.875h-.625m2.5-2.5H35c-.69 0-1.25.56-1.25 1.25v1.25m0 0H6.25m0 0h-.625a1.875 1.875 0 01-1.875-1.875V25m2.5 2.5v-1.25C6.25 25.56 5.69 25 5 25H3.75M25 17.5a5 5 0 11-10 0 5 5 0 0110 0zm5 0h.012v.012H30V17.5zm-20 0h.012v.012H10V17.5z"/>
</svg>