<svg width="851" height="216" viewBox="0 0 851 216" fill="none" xmlns="http://www.w3.org/2000/svg">
<path d="M97.6357 194.228C151.03 194.228 194.314 150.749 194.314 97.1142C194.314 43.4795 151.03 0 97.6357 0C44.2415 0 0.957031 43.4795 0.957031 97.1142C0.957031 150.749 44.2415 194.228 97.6357 194.228Z" fill="#67BE78"/>
<path d="M334.635 59.2266C305.8 59.2266 284.469 80.3766 284.469 110.185C284.469 139.992 305.814 161.142 334.635 161.142C363.456 161.142 384.801 139.992 384.801 110.185C384.801 80.3766 363.47 59.2266 334.635 59.2266ZM334.635 152.498C311.57 152.498 294.261 135.386 294.261 110.185C294.261 84.9833 311.556 67.8709 334.635 67.8709C357.714 67.8709 375.009 84.9833 375.009 110.185C375.009 135.386 357.714 152.498 334.635 152.498Z" fill="#292929"/>
<path d="M445.916 59.2266C417.082 59.2266 395.75 80.3766 395.75 110.185C395.75 139.992 417.082 161.142 445.916 161.142C474.751 161.142 496.083 139.992 496.083 110.185C496.083 80.3766 474.751 59.2266 445.916 59.2266ZM445.916 152.498C422.851 152.498 405.542 135.386 405.542 110.185C405.542 84.9833 422.838 67.8709 445.916 67.8709C468.995 67.8709 486.291 84.9833 486.291 110.185C486.291 135.386 468.995 152.498 445.916 152.498Z" fill="#292929"/>
<path d="M675.009 101.718C675.009 73.6447 659.244 59.2149 635.028 59.2149C615.619 59.2149 601.005 68.8348 594.464 83.4406C589.087 67.4798 575.814 59.2149 557.746 59.2149C539.679 59.2149 525.837 67.4798 519.295 81.5167V62.9951H519.255C519.146 60.5427 517.142 58.5781 514.663 58.5781C512.185 58.5781 510.18 60.5427 510.072 62.9951H510.059V63.1442C510.059 63.1442 510.059 63.1713 510.059 63.1848C510.059 63.1984 510.059 63.2119 510.059 63.2254V156.091C510.059 156.091 510.059 156.118 510.059 156.131C510.059 156.145 510.059 156.158 510.059 156.172V156.321H510.072C510.18 158.895 512.28 160.941 514.867 160.941C517.454 160.941 519.553 158.882 519.661 156.321V156.253C519.661 156.253 519.661 156.172 519.661 156.131C519.661 156.091 519.661 156.05 519.661 156.009V106.894C519.661 83.0477 533.693 67.8592 556.379 67.8592C575.99 67.8592 587.705 79.7824 587.705 102.477V156.334H587.732C587.841 158.909 589.94 160.955 592.527 160.955C595.114 160.955 597.335 158.8 597.335 156.145C597.335 156.077 597.322 156.009 597.322 155.942V106.894C597.322 83.0477 611.353 67.8592 634.039 67.8592C653.65 67.8592 665.366 79.7824 665.366 102.477V156.023C665.366 156.023 665.366 156.104 665.366 156.145C665.366 156.185 665.366 156.226 665.366 156.267V156.348C665.474 158.922 667.573 160.968 670.16 160.968C672.747 160.968 674.846 158.909 674.955 156.348H674.968V156.199C674.968 156.199 674.968 156.172 674.968 156.158C674.968 156.145 674.968 156.131 674.968 156.118V101.732L675.009 101.718Z" fill="#292929"/>
<path d="M275.537 151.555H275.51C273.329 152.287 270.539 152.883 267.505 152.883C255.587 152.883 249.817 145.77 249.817 132.885V18.0971C249.817 17.9616 249.858 17.8397 249.858 17.6906C249.844 15.0215 247.677 12.8672 245.023 12.8672C242.368 12.8672 240.188 15.0215 240.188 17.6906V134.036C240.188 150.769 249.221 161.148 266.327 161.148C270.174 161.148 274.399 160.376 277.866 159.034C279.884 158.37 281.022 156.23 280.413 154.184C279.79 152.111 277.609 150.932 275.537 151.555Z" fill="#292929"/>
<path d="M731.313 154.183C730.69 152.11 728.523 150.931 726.451 151.555C726.451 151.555 726.451 151.555 726.437 151.555C724.257 152.286 721.453 152.883 718.406 152.883C706.487 152.883 700.718 145.769 700.718 132.884V17.6902C700.718 17.6902 700.718 17.6495 700.718 17.6224C700.718 14.9668 698.564 12.8125 695.91 12.8125C693.255 12.8125 691.102 14.9668 691.102 17.6224C691.102 17.6495 691.102 17.6766 691.102 17.7037V134.036C691.102 150.769 700.135 161.147 717.241 161.147C721.088 161.147 725.313 160.375 728.781 159.034C730.785 158.356 731.923 156.216 731.313 154.183Z" fill="#292929"/>
<path d="M850.958 158.623C850.958 156.198 848.994 154.219 846.556 154.219C844.118 154.219 842.154 156.184 842.154 158.623C842.154 158.65 842.154 158.677 842.154 158.704H842.14C842.14 168.541 839.879 175.071 835.233 178.662C832.023 181.128 827.635 182.212 822.529 182.388C822.529 182.009 822.543 181.643 822.543 181.263C822.583 169.151 822.543 158.162 822.488 149.694L822.895 63.0073C822.895 60.3652 820.741 58.2245 818.1 58.2245C815.459 58.2245 813.319 60.3652 813.306 63.0073H813.292V109.02C813.292 132.866 799.261 148.055 776.575 148.055C755.622 148.055 743.514 136.131 743.514 113.437V62.9938H743.487C743.487 60.3517 741.334 58.2109 738.693 58.2109C736.052 58.2109 733.912 60.3517 733.898 62.9938V114.209C733.898 142.283 750.232 156.712 775.803 156.712C793.098 156.712 806.561 148.637 813.292 135.373L813.698 151.225C813.753 159.449 813.78 169.855 813.739 181.236C813.739 181.48 813.739 181.71 813.739 181.941C804.868 180.884 794.872 178.255 785.514 175.79C762.868 169.828 739.438 163.65 732.043 180.207C728.67 187.74 730.174 195.381 736.268 201.722C744.95 210.746 761.947 215.976 778.335 215.976C786.367 215.976 794.249 214.716 800.927 212.047C811.369 207.86 818.303 200.638 821.12 191.249C828.637 191.249 835.328 189.704 840.61 185.64C847.477 180.342 850.958 171.278 850.944 158.704C850.944 158.704 850.944 158.65 850.944 158.623H850.958ZM797.649 203.877C778.823 211.437 752.142 205.543 742.62 195.625C739.031 191.886 738.205 188.024 740.088 183.811C741.889 179.759 746.209 178.255 752.074 178.255C760.309 178.255 771.604 181.236 783.279 184.312C793.017 186.873 802.904 189.488 812.046 190.639C809.689 196.547 804.868 200.991 797.649 203.877Z" fill="#292929"/>
<g clip-path="url(#clip0_540_2196)">
<path d="M55.7294 141.114C61.0132 145.4 67.4916 147.563 75.0293 147.563C76.2117 147.563 77.4187 147.513 78.6627 147.4C79.0938 147.338 79.5248 147.188 79.9067 146.913C81.126 146.038 81.4093 144.338 80.5594 143.101C79.9682 142.251 78.9829 141.864 78.0346 141.976C70.4353 142.601 64.0554 140.876 59.0918 136.852C57.5399 135.59 56.0127 133.578 56.0127 133.578C50.0638 125.529 50.8274 113.844 54.4854 93.7229C56.6162 81.9751 58.0326 69.2151 59.0549 59.8919C59.4367 56.4675 59.8185 52.9682 60.1264 50.7061C63.5011 52.9057 70.0165 58.9046 75.2264 64.416L76.9384 66.2032L78.8474 64.641C78.8474 64.641 84.8579 59.8044 92.0753 59.6044H92.4572C99.6746 59.8044 105.623 64.6035 105.685 64.641L107.606 66.2157L109.318 64.4035C114.541 58.8921 121.044 52.8807 124.418 50.6936C124.726 52.9557 125.12 56.4675 125.49 59.8919C126.512 69.2151 127.929 81.9751 130.059 93.7229C133.175 110.857 134.198 124.18 129.222 132.84C128.039 134.74 126.722 136.39 125.428 137.552C118.716 134.965 111.683 130.503 105.155 126.379C93.3932 118.943 83.2444 112.519 76.8399 118.218C72.0857 122.455 72.2951 128.904 77.3818 135.065C82.2961 141.014 90.9299 145.95 99.9209 147.95C102.877 148.612 105.796 148.937 108.604 148.937C115.206 148.937 121.302 147.15 126.389 143.663C130.983 145.113 135.528 145.7 139.863 144.863C146.157 143.638 150.8 140.726 153.695 136.177C156.996 130.978 157.759 123.705 155.838 115.669C155.419 113.907 154.889 112.019 154.323 110.02C151.465 99.8967 147.894 87.2866 155.32 78.4133H155.308C156.232 77.4885 156.392 76.0388 155.616 74.964C154.754 73.7517 153.054 73.4643 151.835 74.3141C151.601 74.4766 151.416 74.6765 151.244 74.889C141.957 85.9869 146.132 100.747 149.175 111.519C149.729 113.469 150.246 115.306 150.64 116.943C151.552 120.743 152.562 127.916 149.199 133.215C147.142 136.452 143.669 138.564 138.878 139.502C136.464 139.964 133.902 139.852 131.229 139.302C131.587 138.877 131.931 138.402 132.289 137.939L132.338 137.977C132.892 137.227 133.385 136.452 133.841 135.665C133.865 135.627 133.902 135.577 133.927 135.54C139.703 125.504 138.792 111.557 135.368 92.7481C133.262 81.2003 131.87 68.5402 130.86 59.3045C129.382 45.932 129.296 45.1322 127.066 44.5573C125.859 44.2449 122.238 43.2826 107.077 58.992C104.293 57.1924 98.9356 54.3554 92.5803 54.1805H91.9399C85.6461 54.3679 80.3008 57.1924 77.5296 58.992C62.3187 43.2826 58.71 44.2324 57.4907 44.5573C55.4461 45.0947 55.1875 47.0693 54.7441 50.3312C54.4485 52.5433 54.1036 55.6802 53.6972 59.3045C52.6749 68.5527 51.2832 81.2003 49.1894 92.7606C45.827 111.27 43.8686 126.279 51.7142 136.89C51.7881 136.99 53.6479 139.439 55.7294 141.126V141.114ZM81.4832 131.566C79.2662 128.879 77.2709 125.092 80.3747 122.317C81.0028 121.755 81.8527 121.505 82.8626 121.505C87.2719 121.505 94.8958 126.329 102.298 131.016C107.927 134.578 113.9 138.352 119.898 141.126C106.424 147.35 88.7376 140.364 81.4832 131.578V131.566Z" fill="white"/>
</g>
<defs>
<clipPath id="clip0_540_2196">
<rect width="110.614" height="104.517" fill="white" transform="translate(46.2461 44.4219)"/>
</clipPath>
</defs>
</svg>
